<?xml version="1.0" standalone="no"?>
<!DOCTYPE svg PUBLIC "-//W3C//DTD SVG 20010904//EN"
 "http://www.w3.org/TR/2001/REC-SVG-20010904/DTD/svg10.dtd">
<svg version="1.0" xmlns="http://www.w3.org/2000/svg"
 width="260.000000pt" height="260.000000pt" viewBox="0 0 260.000000 260.000000"
 preserveAspectRatio="xMidYMid meet">
<metadata>
Created by potrace 1.14, written by Peter Selinger 2001-2017
</metadata>
<g transform="translate(0.000000,260.000000) scale(0.100000,-0.100000)"
fill="#000000" stroke="none">
<path d="M1879 2206 c-82 -29 -140 -84 -168 -159 -31 -83 0 -218 65 -279 67
-63 197 -88 279 -54 90 38 152 122 162 220 19 181 -169 333 -338 272z"/>
<path d="M1557 1243 c-14 -4 -16 -10 -10 -26 16 -45 8 -160 -14 -203 -20 -37
-94 -114 -111 -114 -4 0 -13 -4 -21 -9 -11 -7 -10 -15 8 -44 82 -134 282 -156
399 -44 57 54 77 102 77 187 0 57 -5 84 -22 115 -48 89 -139 145 -233 144 -30
-1 -63 -3 -73 -6z"/>
<path d="M910 1066 c-83 -22 -153 -80 -178 -145 -8 -23 -13 -24 -79 -22 -111
4 -187 -38 -239 -131 -25 -46 -29 -64 -29 -128 0 -85 20 -133 77 -186 56 -54
95 -69 178 -69 64 0 82 4 128 29 52 29 91 70 113 120 11 24 17 26 81 26 145 0
251 89 265 223 11 112 -44 220 -136 266 -49 25 -127 32 -181 17z"/>
</g>
</svg>
